<?xml version="1.0" standalone="no"?><!DOCTYPE svg PUBLIC "-//W3C//DTD SVG 1.1//EN" "http://www.w3.org/Graphics/SVG/1.1/DTD/svg11.dtd"><svg t="1488292771730" class="icon" style="" viewBox="0 0 1024 1024" version="1.1" xmlns="http://www.w3.org/2000/svg" p-id="4271" xmlns:xlink="http://www.w3.org/1999/xlink" width="128" height="128"><defs><style type="text/css"></style></defs><path d="M609.194667 123.861333c-152.817778 0-288.896 88.192-351.616 226.232889-64.739556 8.078222-115.882667 60.572444-121.884444 125.923556C70.044444 517.304889 28.444444 591.971556 28.444444 670.805333c0 126.449778 102.087111 229.333333 227.555556 229.333333l355.555556 0c2.616889 0 6.471111-0.384 10.695111-2.076444C828.8 891.107556 995.555556 718.776889 995.555556 510.222222 995.555556 297.187556 822.229333 123.861333 609.194667 123.861333zM613.944889 841.358222c-2.517333 0-6.172444 0.355556-10.211556 1.891556L256 843.249778c-94.108444 0-170.666667-77.354667-170.666667-172.444444 0-63.715556 35.953778-123.776 91.633778-152.931556 9.656889-5.077333 15.573333-15.217778 15.217778-26.126222l-0.184889-2.844444c0-45.752889 37.219556-82.972444 81.792-83.000889 0.711111 0.028444 2.289778 0.128 2.986667 0.113778 11.605333 0 22.087111-7.068444 26.410667-17.891556 50.318222-125.966222 170.439111-207.374222 306.005333-207.374222C790.855111 180.750222 938.666667 328.561778 938.666667 510.222222 938.666667 690.474667 792.832 839.025778 613.944889 841.358222z" p-id="4272" fill="#1296db"></path><path d="M878.094222 461.027556c-0.824889-7.808-8.007111-13.454222-15.630222-12.558222-7.836444 0.810667-13.496889 8.021333-12.672 15.829333 0.782222 7.253333 1.152 15.118222 1.166222 22.584889 0.014222 7.864889 6.371556 15.032889 14.222222 15.032889 0.014222 0 0.014222 0 0.042667 0 7.850667 0 14.208-7.168 14.193778-15.032889C879.416889 478.449778 878.976 469.219556 878.094222 461.027556z" p-id="4273" fill="#1296db"></path><path d="M850.247111 371.896889c-41.784889-76.117333-121.614222-123.406222-208.355556-123.406222-7.864889 0-14.222222 6.357333-14.222222 14.222222 0 7.864889 6.357333 14.222222 14.222222 14.222222 76.359111 0 146.645333 41.628444 183.409778 108.657778 2.602667 4.707556 7.438222 7.381333 12.487111 7.381333 2.289778 0 4.650667-0.568889 6.812444-1.763556C851.498667 387.441778 854.030222 378.780444 850.247111 371.896889z" p-id="4274" fill="#1296db"></path><path d="M579.413333 414.008889c-12.899556-16.455111-31.089778-25.898667-49.863111-25.898667-18.432 0-35.456 8.760889-48.071111 24.832L373.76 554.524444c-13.781333 17.578667-17.379556 36.551111-9.856 52.024889 7.239111 14.862222 23.409778 23.395556 44.430222 23.395556L462.222222 629.944889c7.864889 0 14.222222-6.357333 14.222222-14.222222s-6.357333-14.222222-14.222222-14.222222l-53.902222 0c-9.557333 0-16.611556-2.744889-18.844444-7.395556-2.503111-5.148444 0.042667-13.610667 6.798222-22.215111l107.719111-141.582222c6.968889-8.888889 16.028444-13.781333 25.557333-13.781333 10.112 0 19.882667 5.333333 27.406222 14.919111l107.918222 140.017778c6.684444 8.504889 9.201778 17.109333 6.613333 22.442667-2.332444 4.807111-9.187556 7.552-18.787556 7.552L590.222222 601.457778c-7.864889 0-4.195556 6.357333-4.195556 14.222222l0 57.244444c0 31.104-26.439111 55.452444-54.229333 55.452444-21.745778 0-42.709333-11.064889-50.588444-31.203556-2.858667-7.338667-10.467556-10.951111-17.806222-8.078222-7.296 2.858667-9.671111 11.107556-6.812444 18.446222 12.259556 31.331556 41.144889 49.308444 74.908444 49.308444 43.704889 0 82.958222-36.864 82.958222-83.911111l0-43.008 38.229333 0c20.920889 0 37.091556-8.576 44.387556-23.537778 7.495111-15.459556 3.825778-35.100444-9.770667-52.380444L579.413333 414.008889z" p-id="4275" fill="#1296db"></path><path d="M469.333333 669.027556c3.697778 0 7.395556-1.578667 10.097778-4.138667 2.56-2.688 4.124444-6.385778 4.124444-10.083556s-1.564444-7.409778-4.124444-10.112c-5.404444-5.248-14.933333-5.248-20.195556 0C456.661333 647.395556 455.111111 651.107556 455.111111 654.805333s1.550222 7.395556 4.124444 10.083556C461.923556 667.448889 465.635556 669.027556 469.333333 669.027556z" p-id="4276" fill="#1296db"></path></svg>